<svg width="56" height="56" viewBox="0 0 56 56" fill="none" xmlns="http://www.w3.org/2000/svg">
<path d="M20.9999 4.66666H11.6666V9.33332H6.99992V14H2.33325V28H6.99992V32.6667H11.6666V37.3333H16.3333V42H20.9999V46.6667H25.6666V51.3333H30.3333V46.6667H34.9999V42H39.6666V37.3333H44.3333V32.6667H48.9999V28H53.6666V14H48.9999V9.33332H44.3333V4.66666H34.9999V9.33332H30.3333V14H25.6666V9.33332H20.9999V4.66666ZM20.9999 9.33332V14H25.6666V18.6667H30.3333V14H34.9999V9.33332H44.3333V14H48.9999V28H44.3333V32.6667H39.6666V37.3333H34.9999V42H30.3333V46.6667H25.6666V42H20.9999V37.3333H16.3333V32.6667H11.6666V28H6.99992V14H11.6666V9.33332H20.9999Z" fill="#0048CF"/>
</svg>
