<svg width="55" height="70" viewBox="0 0 55 70" fill="none" xmlns="http://www.w3.org/2000/svg">
<path d="M50.4167 23.3333V17.5H48.1251V14.5833H45.8334V11.6667H41.2501V8.75001H34.3751V5.83334H20.6251V8.75001H13.7501V11.6667H9.16675V14.5833H6.87508V17.5H4.58341V23.3333H2.29175V40.8333H4.58341V46.6667H6.87508V52.5H4.58341V55.4167H2.29175V61.25H13.7501V58.3333H16.0417V55.4167H20.6251V58.3333H34.3751V55.4167H41.2501V52.5H45.8334V49.5833H48.1251V46.6667H50.4167V40.8333H52.7084V23.3333H50.4167ZM45.8334 40.8333V46.6667H41.2501V49.5833H34.3751V52.5H20.6251V49.5833H16.0417V52.5H13.7501V55.4167H9.16675V52.5H11.4584V46.6667H9.16675V40.8333H6.87508V23.3333H9.16675V17.5H13.7501V14.5833H20.6251V11.6667H34.3751V14.5833H41.2501V17.5H45.8334V23.3333H48.1251V40.8333H45.8334Z" fill="black"/>
</svg>
